PathFileType	4	(x/y/z)	S08_PSF_T05
DataRate	CameraRate	NumFrames	NumMarkers	Units	OrigDataRate	OrigDataStartFrame	OrigNumFrames
240	240	4	51	mm	240	314	418
Frame#	Time	Sternum			R.Acromium			L.Acromium			Top.Head			R.ASIS			L.ASIS			R.PSIS			L.PSIS			R.Great.Tro			L.Great.Tro			R.Iliac.Crest			L.Iliac.Crest			V.Sacral			R.Thigh.Upper.Post			R.Thigh.Lower.Ant			R.Thigh.Lower.Post			R.Thigh.Upper.Ant			R.Knee.Lat			R.Knee.Med			R.Shank.Upper.Post			R.Shank.Lower.Ant			R.Shank.Lower.Post			R.Shank.Upper.Ant			R.Ankle.Lat			R.Ankle.Med			R.Heel.Upper			R.Heel.Med			R.Heel.Lat			R.Toe.Lat			R.Toe.Med			R.Toe.Tip			L.Thigh.Upper.Post			L.Thigh.Lower.Ant			L.Thigh.Lower.Post			L.Thigh.Upper.Ant			L.Knee.Lat			L.Knee.Med			L.Shank.Upper.Post			L.Shank.Lower.Ant			L.Shank.Lower.Post			L.Shank.Upper.Ant			L.Ankle.Lat			L.Ankle.Med			L.Heel.Upper			L.Heel.Med			L.Heel.Lat			L.Toe.Lat			L.Toe.Med			L.Toe.Tip			Cervical.Spine			Back			
		X1	Y1	Z1	X2	Y2	Z2	X3	Y3	Z3	X4	Y4	Z4	X5	Y5	Z5	X6	Y6	Z6	X7	Y7	Z7	X8	Y8	Z8	X9	Y9	Z9	X10	Y10	Z10	X11	Y11	Z11	X12	Y12	Z12	X13	Y13	Z13	X14	Y14	Z14	X15	Y15	Z15	X16	Y16	Z16	X17	Y17	Z17	X18	Y18	Z18	X19	Y19	Z19	X20	Y20	Z20	X21	Y21	Z21	X22	Y22	Z22	X23	Y23	Z23	X24	Y24	Z24	X25	Y25	Z25	X26	Y26	Z26	X27	Y27	Z27	X28	Y28	Z28	X29	Y29	Z29	X30	Y30	Z30	X31	Y31	Z31	X32	Y32	Z32	X33	Y33	Z33	X34	Y34	Z34	X35	Y35	Z35	X36	Y36	Z36	X37	Y37	Z37	X38	Y38	Z38	X39	Y39	Z39	X40	Y40	Z40	X41	Y41	Z41	X42	Y42	Z42	X43	Y43	Z43	X44	Y44	Z44	X45	Y45	Z45	X46	Y46	Z46	X47	Y47	Z47	X48	Y48	Z48	X49	Y49	Z49	X50	Y50	Z50	X51	Y51	Z51	

314	1.3042	361.78	1229.6	298.46	246.49	1466.7	470.82	230.88	1492.2	134.64	249.69	1786.9	314.98	341.36	1012.9	404.24	345.35	1027.4	173.15	141.1	1038.2	327.26	145.38	1048.4	233.83	275.08	898.08	468.13	258.13	921.04	101.62	243.43	1077.6	451.14	250.12	1107.5	143.72	127.55	1003.1	276.19	299.7	700.51	457.62	396.81	617.68	437.73	324.92	613.9	441.81	378.41	710.35	453.6	376.58	517.5	433.8	363.71	516.63	301.28	216.2	427.67	443.35	211.18	339.34	423.06	159.19	375.32	437.71	269.16	392.29	431.24	34.627	267.61	409.49	65.132	250.95	331.31	-14.279	287.98	360.17	-30.347	266.2	331.55	-34.278	271.33	393.6	NaN	NaN	NaN	63.88	109.48	320.31	111.77	62.672	364.85	270.16	709.34	121.18	366.27	632.04	147.19	298.08	624.75	141.1	343.24	714.89	120.87	328.03	523.49	165.69	328.25	527.15	290.01	274.39	340.05	170.06	343.99	255.68	195.32	273.32	267.75	188.06	338.83	330.22	177.24	299.57	96.878	209.14	324.64	107.42	294.35	249.1	74.929	260.4	262.98	41.257	292.1	257.62	46.72	227.9	434.23	40.261	196.23	450.99	49.146	310.83	514.08	68.813	262.87	173.08	1524.4	298.2	128.27	1240.8	309.68
315	1.3083	366.63	1230.3	298.36	251.51	1467.5	470.66	236	1493	134.58	255.12	1787.6	314.87	346.29	1013.8	404	350.03	1028	172.91	146	1038.9	327.23	150.27	1049.1	233.84	280.57	899.08	468.07	262.52	921.6	101.57	248.34	1078.5	451.05	254.89	1108.1	143.57	132.42	1003.8	276.2	307.57	701.71	457.65	405.54	619.96	437.37	333.67	615.38	441.72	386.21	712.39	453.34	386.29	519.5	433.45	373.16	518.6	300.96	226.71	428.1	443.24	222.62	339.71	423.03	170.28	375.13	437.75	280.02	393.26	431.03	46.674	266.08	409.55	77.381	249.76	331.55	-3.1776	284.95	360.29	-18.672	262.53	331.84	-22.65	267.98	393.82	NaN	NaN	NaN	79.548	108.29	321.53	128.69	63.092	366.37	273.23	709.91	121.08	368.8	631.92	147.08	300.6	625.13	140.89	346.34	714.96	120.81	329.74	523.53	165.62	330.19	527.19	289.91	275.25	340.29	170.02	344.59	255.67	195.31	273.95	267.98	188.07	339.67	330.23	177.2	299.69	96.977	209.21	324.76	107.47	294.4	249.14	74.992	260.42	262.97	41.324	292.08	257.65	46.793	227.91	434.27	40.155	196.18	451.06	48.982	310.82	514.16	68.53	262.84	178.17	1525.1	298.06	133.22	1241.6	309.5
316	1.3125	371.49	1231	298.25	256.52	1468.3	470.51	241.11	1493.8	134.53	260.55	1788.3	314.77	351.21	1014.7	403.75	354.69	1028.6	172.65	150.9	1039.6	327.21	155.14	1049.7	233.86	286.06	900.08	468.02	266.9	922.11	101.53	253.26	1079.3	450.95	259.63	1108.7	143.43	137.29	1004.4	276.22	315.38	702.92	457.73	414.18	622.25	437.01	342.35	616.86	441.67	393.94	714.42	453.07	395.89	521.5	433.1	382.48	520.58	300.65	237.17	428.44	443.11	234.08	339.98	423.01	181.37	374.81	437.77	290.85	394.17	430.82	58.834	264.3	409.6	89.754	248.34	331.77	8.0821	281.62	360.42	-6.822	258.59	332.13	-10.852	264.34	394.05	NaN	NaN	NaN	95.411	106.96	322.73	145.81	63.428	367.85	276.3	710.47	120.98	371.34	631.8	147	303.13	625.5	140.7	349.43	715	120.8	331.44	523.57	165.57	332.11	527.23	289.84	276.12	340.52	169.98	345.19	255.65	195.32	274.6	268.21	188.1	340.53	330.22	177.17	299.82	97.079	209.29	324.87	107.51	294.46	249.19	75.054	260.45	262.95	41.387	292.07	257.69	46.87	227.93	434.32	40.052	196.13	451.12	48.791	310.82	514.25	68.222	262.81	183.26	1525.8	297.91	138.17	1242.4	309.32
317	1.3167	376.33	1231.6	298.13	261.54	1469	470.37	246.22	1494.6	134.49	265.98	1788.9	314.67	356.13	1015.6	403.49	359.35	1029.1	172.37	155.78	1040.3	327.21	159.99	1050.3	233.89	291.54	901.06	467.98	271.28	922.58	101.49	258.18	1080.1	450.86	264.34	1109.3	143.29	142.14	1005.1	276.26	323.12	704.12	457.83	422.73	624.53	436.64	350.95	618.36	441.65	401.59	716.45	452.81	405.37	523.5	432.73	391.67	522.55	300.35	247.57	428.67	442.96	245.56	340.15	422.98	192.46	374.35	437.79	301.64	395.02	430.61	71.111	262.28	409.65	102.25	246.7	331.97	19.506	278	360.54	5.2071	254.36	332.42	1.1231	260.43	394.29	NaN	NaN	NaN	111.46	105.51	323.91	163.1	63.69	369.3	279.38	711	120.89	373.87	631.66	146.95	305.66	625.85	140.52	352.52	715.02	120.81	333.16	523.61	165.54	333.99	527.26	289.8	277	340.74	169.96	345.81	255.63	195.36	275.26	268.42	188.14	341.39	330.22	177.18	299.97	97.183	209.39	324.97	107.54	294.55	249.24	75.115	260.49	262.93	41.445	292.06	257.72	46.951	227.95	434.37	39.954	196.09	451.19	48.572	310.82	514.35	67.891	262.81	188.34	1526.5	297.78	143.11	1243.1	309.15
